<?xml version="1.0" encoding="utf-8"?>
<svg version="1.1" id="Lag_1" xmlns="http://www.w3.org/2000/svg" xmlns:xlink="http://www.w3.org/1999/xlink" x="0px" y="0px"
	 viewBox="0 0 2300 710" style="enable-background:new 0 0 2300 710;background-color: #e6b850" xml:space="preserve">
<style type="text/css">
	.st0{fill:#FECE4E;}
	.st1{fill:#EFEEEE;}
	.st2{fill:#152030;}
	.st3{fill:#E78E44;}
	.st4{fill:#D74E3F;}
	.st5{fill:#E698A2;}
	.st6{fill:#E9ACB4;}
	.st7{fill:#455764;}
	.st8{fill:#FFFFFF;}
</style>
<path class="st0" d="M785.2,80.4c1.4-6.5,6.8-27.7,7.6-35.3s4.7-49,15.8-69.9s34.9-42.1,34.9-42.1L868-78.8l15.1-7.2
	c0,0,9.7-8.6,17.3-9c7.6-0.4,21.2,0.4,21.2,0.4s6.8,5.4,11.5,6.1c4.7,0.7,16.2,5.8,16.2,5.8s27,2.5,35.7,10.4s38.9,48.3,43.2,59.4
	c4.3,11.2,18.4,57.6,18.4,57.6s3.2,4.3,5.8,4c2.5-0.4,6.8-0.4,6.8-0.4s0.4,7.2,1.8,13c1.4,5.8,2.5,7.9,2.2,11.9
	c-0.4,4-12.6,17.3-12.6,17.3L785.2,80.4z"/>
<path class="st1" d="M1025.4,308.3c7.9,5,47.5,38.2,47.5,38.2s19.4,8.6,25.2,12.2c5.8,3.6,80.7,42.5,89.3,46.1s26.7,13,26.7,13
	s7.9,10.1,17.3,16.6c9.4,6.5,26.7,46.1,33.9,59.8c7.2,13.7,15.8,59.8,15.8,59.8s27.4,102.3,33.1,118.1s12.2,34.6,12.2,34.6l-13,10.8
	c0,0-49.7,18.7-81.4,28.8c-31.7,10.1-52.6,8.6-52.6,8.6v-11.5c0,0-6.5-8.6-7.2-13.7c-0.7-5,0-25.9,0-25.9s-2.2,8.6-4.3,13.7
	c-2.2,5-10.1,23.1-10.1,23.1s2.2,7.9,5.4,18c3.2,10.1-6.8,43.9-10.4,53.3c-3.6,9.4-8.6,18.7-8.6,18.7l8.6,12.2c0,0-3.6,9.4-9.4,17.3
	c-5.8,7.9-19.4,18.7-19.4,18.7s-59.8,32.4-61.2,31.7c-1.4-0.7-338.5-10.1-338.5-10.1s-67.7-19.4-75.6-20.9
	c-7.9-1.4-5.4-23.8-5.4-23.8l1.4-14.4c0,0-4-18-4.7-31c-0.7-13,15.8-71.3,15.8-71.3s10.8-49.7,8.6-57.6c-2.2-7.9-1.4-41.8-1.4-41.8
	s-14.4,12.2-18,18c-3.6,5.8-22.3,36.7-22.3,36.7s-33.1-6.5-34.6-4.3s-108.8-24.5-108.8-24.5l4.3-27.4c0,0,5.8-13,8.6-17.3
	c2.9-4.3,19.4-18,19.4-18s16.6-25.9,29.5-38.9s38.2-53.3,38.9-56.9c0.7-3.6,23.8-45.4,29.5-56.9c5.8-11.5,43.2-33.9,43.2-33.9
	s46.8-31.7,59.1-33.1c12.2-1.4,71.3-23.1,74.9-25.2c3.6-2.2,25.2-14.4,25.2-14.4s23.8-13.7,30.3-18s12.2-9.4,18-13.7
	c5.8-4.3,48.3-14.4,48.3-14.4S1017.5,303.3,1025.4,308.3z"/>
<path class="st2" d="M745.7,371.4c0,0,20-4.9,26.5-9.5c6.5-4.6,13.5-5.7,13.5-5.7s7.6,21.6,13,31.9s23.2,47.5,26.5,56.2
	c3.2,8.6,13,29.7,13,29.7s5.9,13.5,5.9,15.1c0,1.6,2,15.9,2,15.9l-52.2,10.3l-5.9-26.8l-14.1-43.8c0,0-14.6-43.2-19.4-51.3
	C749.5,385.4,745.7,371.4,745.7,371.4z"/>
<path class="st2" d="M1052,523.3l10.8-31.7c0,0,11.2-32.1,15.4-42.5c4.2-10.4,25.4-71.7,27.3-75.8c1.9-4.1,4.6-11.2,4.6-11.2
	l46.1,25c0,0-9,18-11.8,22c-2.7,4.1-23.2,69.7-24.6,76.6c-1.4,6.9-11.6,52.9-11.8,53.5L1052,523.3z"/>
<path class="st3" d="M836.3,152c-10.4-6.5-34.2-16.6-44.7-33.1c-10.4-16.6-14.8-22.3-13.7-30.6c-1.8-10.8,0-17.6,0-17.6l5.4-1.8
	c0,0,27-27.4,32.1-29.2s47.5-14,99.8-14.8c52.2-0.7,95.1,2.5,95.1,2.5s29.2,15.8,36.7,22c7.6,6.1,15.5,19.8,16.2,23.8
	s-6.1,19.1-9.7,27s-18,25.9-18,25.9L836.3,152z"/>
<path class="st4" d="M551.4,825.5c6.5-28.1,21.6-75.6,24.5-98.7c2.9-23.1,19.4-100.1,19.4-100.1s-5.8-103.7-8.6-121
	c-2.9-17.3-24.5-117.4-29.5-128.9c-5-11.5-26.7-13-26.7-13L514,348.7c0,0,7.9-16.6,18-25.9c10.1-9.4,28.1-20.9,37.5-29.5
	c9.4-8.6,33.1-8.6,39.6-5.8c6.5,2.9,20.2,15.8,20.2,15.8l9.4-3.6c0,0,2.2-11.5,10.8-16.6c8.6-5,25.2-1.4,25.2-1.4l13.7,22.3
	c0,0,6.5-14.4,13-18c6.5-3.6,17.3-5.8,17.3-5.8s9.4-25.9,18.7-30.3c9.4-4.3,26.7-1.4,26.7-1.4s5.8,5.8,10.8,13c5,7.2,8.6,13,8.6,13
	s18.7,7.2,20.2,18c1.4,10.8,2.2,45.4,2.2,45.4s-2.2,64.8-5.8,80.7c-3.6,15.8-20.2,152-20.2,152s-25.9,136.9-37.5,160.6
	s-30.3,57.6-30.3,57.6s-9.4,37.5-19.4,61.2c-10.1,23.8-26.7,74.9-44.7,98.7c-18,23.8-49.7,46.8-59.8,49.7
	c-10.1,2.9-34.6,5.8-43.2-10.1c-8.6-15.8-2.9-84.3-2.9-84.3L551.4,825.5z"/>
<path class="st4" d="M655.2,972.5c-8.6,27.4-28.8,85-41.1,91.5c-12.2,6.5-25.2-4.3-25.2-4.3s-10.8,16.6-22.3,5
	c-11.5-11.5-15.1-49-15.1-49l-2.9-108c0,0-7.9,21.6-22.3,32.4c-14.4,10.8-58.3,23.8-69.9-7.2c-11.5-31-14.4-132.5-16.6-175.8
	c-2.2-43.2-1.4-154.1,5.8-194.5c7.2-40.3,34.6-160.6,41.1-180.1s26.7-51.1,57.6-56.2c31-5,138.3,14.4,138.3,14.4l75.6,100.8
	l15.8,54.7l-5.8,93.6L707,759.3L655.2,972.5z"/>
<path class="st5" d="M1020.2,178c0,0,0.5,96.2,3.2,108c2.7,11.9,17.3,40,17.3,40s2.2,33.5,0,41.6c-2.2,8.1-28.6,29.2-28.6,29.2
	s-45.9,8.6-75.6,11.3c-29.7,2.7-63.7-31.9-67.5-35.7c-3.8-3.8-15.1-31.9-16.2-38.9c-1.1-7,4.3-15.7,4.3-15.7s-2.7-38.4-5.4-49.2
	c-2.7-10.8-9.7-115.1-9.7-115.1L1020.2,178z"/>
<path class="st6" d="M869.8,52.4L933.7,38l50.3,7.8l25.8,10.6l21.6,64.8c0,0,3.2-4.9,7.6-6.5s7.6,3.2,10.3,5.9
	c2.7,2.7,6.5,18.4,6.5,18.4s-2.7,29.2-2.7,36.7c0,7.6-8.6,15.7-13,17.8s-14.6-3.8-14.6-3.8s-0.5,3.8-2.7,12.4
	c-2.2,8.6-22.7,42.7-22.7,42.7s-24.3,17.3-35.7,22.1c-11.3,4.9-38.4,5.4-46.5,4.3c-8.1-1.1-41.6-13-41.6-13s-31.9-29.7-35.1-36.2
	c-3.2-6.5-4.9-18.9-4.9-18.9l-4.3,4.3c0,0-8.1,2.7-10.8,0c-2.7-2.7-8.6-12.4-9.7-17.3c-1.1-4.9-7-20-7-20s-2.7-22.1-2.2-26.5
	s5.9-11.9,8.6-12.4s9.2,5.4,9.2,5.4l5.4-69.2L869.8,52.4z"/>
<path class="st7" d="M846.8,61.6l-9.4,23.1l-11.2,46.1l0.7,17.3l5.4,28.8l-7.2-4.3l-4-24.5l-7.2-16.6l1.8-35.7L846.8,61.6z"/>
<path class="st7" d="M1008.5,51.9c1.1,0,25.2,35.3,25.2,35.3l2.9,21.2l-5,12.8c0,0,2.9,13.9,2.5,24.7c-0.4,10.8-5.8,17.3-5.8,17.3
	l-2.5-5l1.1-18.7c0,0,0,0,0.4-4.7c0.4-4.7-4-28.8-4-28.8L1006.7,67l-14-15.5C992.6,51.6,1007.4,51.9,1008.5,51.9z"/>
<path class="st8" d="M815.1,118.9l-5.8-12.2c0,0,0.7-7.9,3.6-16.6s7.2-27.4,7.2-27.4s32.4-17.3,49-19.4c16.6-2.2,74.2-9.4,88.6-7.9
	c14.4,1.4,43.9,9.4,43.9,9.4s17.3,12.2,23.1,18c5.8,5.8,10.1,13,10.1,13v18l-9.4-13.7c0,0-0.7,10.1-4.3,9.4
	c-3.6-0.7-7.2-19.4-7.2-19.4s-26.7-18.7-39.6-22.3c-13-3.6-72-2.2-86.4,2.2c-14.4,4.3-35.3,11.5-43.9,20.2s-14.4,18-14.4,18
	s2.9,5,2.9,10.1s-2.9,11.5-2.9,11.5l-5-6.5l-6.5,1.4L815.1,118.9z"/>
<path class="st2" d="M1127.7,999.7c2.7,9.7,3.2,50.8,3.2,50.8l-511.8-10.3c0.7-27.4,28.8-95.8,28.8-95.8v-42.5l3.9-20.1
	c0,0,26.3-41.9,35.7-50.5c9.4-8.6,26.7-26.7,31.7-39.6c5-13,20.9-65.5,28.1-79.2c7.2-13.7,24.5-61.2,25.9-76.4s8.6-44.7,8.6-44.7
	l12.2-18h13.7V554l49.7-3.6l3.6,20.9c0,0,56.9,8.6,83.6,14.4c26.7,5.8,89.3,7.9,89.3,7.9l4-20.9l51.1-29.3l19.6-2.2
	c0,0-2.4,47.3-3.5,55.1c-1.1,7.8-1.4,16.7-1.4,16.7l12.4,4.6c0,0-3.2,18.6-3.2,22.4c0,3.8-3,79.1-3,79.1l-4.1,60
	c0,0-0.5,30.3,1.6,47.5c2.2,17.3,16.2,57.3,16.2,57.3s-5.4,7.6-7,10.3c-1.6,2.7-4.9,9.2-4.9,9.2l0.5,10.8l-2.2,21.1
	c0,0,1.1,9.2,3.8,14C1116.9,954.3,1125,989.9,1127.7,999.7z"/>
<path class="st7" d="M863.8,547.5c-0.8-2.7-5.9-4.3-5.9-4.3l-8.6-1.6l-5.1-11.9v-17.3l6.5-5.1c0,0,1.1-3.8,0.5-6.2
	c-0.5-2.4-4.6-23.8-4.6-23.8s-0.3-4.3-5.7-3c-5.4,1.4-58.1,11.3-58.1,11.3l2.4,26.7c0,0,1.6,7.3,6.2,8.7c4.6,1.3,7,3.8,9.5,6.7
	c2.4,3,6.2,7.8,6.8,11.6c0.5,3.8-2.2,9.7-2.2,9.7s-0.8,3.2-4.1,5.7c-3.2,2.4-4.3,4.9-4.1,6.5c0.3,1.6,1.3,6.2,4,6.8
	c2.7,0.5,58.6-10,61.1-11.6S864.6,550.2,863.8,547.5z M794.9,512.4l-4.3-22.1c1.1-0.4,25.2-4,31.3-5.4c6.1-1.4,18.7-4.9,18.7-4.9
	l6.5,21.9L794.9,512.4z"/>
<path class="st7" d="M1065.7,494.2c0,0-10.3-1.9-11.5,2.9l-6.1,24c0,0,0,7.7,3.1,9.9c3.1,2.2,5.2,5.8,4.9,10.1
	c-0.4,4.3-3.9,16.9-3.9,16.9l-4,6.8h-9.4c0,0-5.4,2.5-6.1,5.8c-0.7,3.2,3.6,10.5,3.6,10.5s0.4,0.1,1.1,0.3l1.8-8.7l50.8,12.1
	l-2.2,10.7c3,0.6,7.7,2.4,8.7-2.6c1.1-5.4-0.7-10.8-2.9-11.9c-2.2-1.1-6.8-10.4-6.5-12.9c0.4-2.5,3.2-9.4,3.2-9.4l6.4-12
	c0,0,13,0.5,14.8-7.5c1.8-7.9,6.8-26.8,6.8-26.8L1065.7,494.2z M1107.6,536.1c-13.2-3.8-36.1-10.4-53.1-15.3
	c1.5-4.9,3.8-12.6,6.6-21.3l49.4,16l1.5,2.3L1107.6,536.1z"/>
<path class="st6" d="M467.5,710.1c0.5-14.6,4.3-40.5,4.3-40.5s17.8-28.6,28.1-36.7c10.3-8.1,34-31,39.4-36.6
	c5.4-5.6,29.7-33.7,29.7-33.7s17.3-18.9,24.9-23.5c7.6-4.6,25.2-20.3,25.2-20.3s24.5-26.5,28.3-31.9c3.8-5.4,17.8-15.7,17.8-15.7
	s21.6-2.2,32.4-3.2s35.7-5.9,35.7-5.9s12.4-6.5,16.2-6.5s9.7,4.9,9.2,9.7s-13,20-13,20l-22.1,10.8c0,0,18.4,2.2,25.4,5.9
	c7,3.8,15.7,14.6,15.7,14.6s5.4,13.5,4.9,18.4c-0.5,4.9-5.4,10-5.4,10s3.8,6.8,1.1,11.6c-2.7,4.9-9.7,11.4-9.7,11.4
	s4.9,8.1,3.2,12.4s-5.4,12.4-5.4,12.4s-13.5,1.4-13,3.4c0.5,2,0.5,7.4,0.5,11.2c0,3.8-7,10.8-7,10.8S722,622,717.1,622
	c-4.9,0-22.1,0-22.1,0s-12.4,1.6-20,3.8c-7.6,2.2-20.5,3.2-24.9,3.2s-16.2-5.9-16.2-5.9l-9.2,2.7c0,0,0,7.6-6.2,16.2
	c-6.2,8.6-14.9,28.1-15.4,29.7c-0.5,1.6-11.3,21.1-16.7,30.8c-5.4,9.7-10.3,41.1-10.3,41.1s-3.8,22.1-11.9,28.6
	s-31.3,21.1-31.3,21.1l-26.5,10.8c0,0-11.9,4.3-18.9,0c-7-4.3-24.3-29.2-24.3-29.2s-7.6-20.5-7-24.9c0.5-4.3,8.6-21.6,8.6-21.6
	L467.5,710.1z"/>
<path class="st7" d="M1235.3,402.7c0,0-16.2,226.2-25,245.2c-8.8,19.1-36.6,102.5-36.6,102.5s-56.7,6.5-66.4,0
	c-9.7-6.5-25.9-45.4-32.4-51.9c-6.5-6.5,25.9-56.7,25.9-56.7s13-79.4,21.5-94s44.9-145.2,44.9-145.2s3.2-38,17.6-50.9
	c14.3-13,10-21.1,10-21.1L1235.3,402.7z"/>
<path class="st4" d="M1411,3.7c-1.1,1.8-44.7,81.4-46.1,83.2c-1.4,1.8-35.4,150.5-35.4,150.5l-2.4,41.8c0,0,253.9-7.2,253.6-8.6
	c-0.4-1.4,5.6-181.5,5.6-181.5l-44.6-90l-77.3-15.5L1411,3.7z"/>
<path class="st7" d="M1186,326.2c7.6-7.6,8.6-5.4,16.2-10.8s30.3-14,45.4-17.3c15.1-3.2,31.3-5.4,38.9-9.7s20.5-16.2,31.3-20.5
	c10.8-4.3,38.9-14,45.4-17.3c6.5-3.2,29.2-10.8,37.8-11.9s116.7-6.5,127.5,17.3c10.8,23.8,23.8,29.2,40,31.3
	c16.2,2.2,35.7,11.9,48.6,13s34.6,5.4,41.1,9.7c6.5,4.3,20.5,3.2,23.8,14c3.2,10.8,14,42.1,14,42.1s20.5,35.7,29.2,50.8
	s19.4,38.9,19.4,38.9s17.3,18.4,27,35.7c9.7,17.3,25.9,50.8,32.4,64.8s28.1,54,28.1,54s9.7,3.2,15.1,16.2s7.6,27,7.6,27
	s5.4,8.6,8.6,22.7c3.2,14-8.6,94-8.6,94s-7.6,55.1-11.9,71.3c-4.3,16.2-20.5,84.3-20.5,84.3l-4.3,32.4c0,0-15.1,7.6-24.9,6.5
	c-9.7-1.1-27-3.2-35.7-8.6c-8.6-5.4-43.2-24.9-47.5-29.2s2.2-11.9,5.4-17.3c3.2-5.4,3.2-19.4,3.2-19.4l16.2-22.7
	c0,0-9.7-10.8-2.2-25.9c7.6-15.1,14-36.7,15.1-43.2c1.1-6.5,18.4-51.9,18.4-51.9s-8.6-15.1-10.8-16.2c-2.2-1.1,0-20.5,0-20.5
	s-4.3-7.6-10.8-14c-6.5-6.5-34.6-76.7-41.1-86.4c-6.5-9.7-38.9-69.2-38.9-69.2s-8.6,19.4-17.3,31.3s-15.1,21.6-15.1,21.6
	s-8.6,60.5-2.2,72.4c6.5,11.9,1.1,29.2-1.1,37.8c-2.2,8.6-7.6,51.9-4.3,58.3c3.2,6.5,1.1,44.3,4.3,50.8c3.2,6.5,8.6,17.3,14,23.8
	s13,10.8,11.9,15.1s0,7.6,0,7.6s8.6,6.5,11.9,13c3.2,6.5,7.6,15.1,2.2,22.7c-5.4,7.6-13,18.4-13,18.4s3.2,15.1,5.4,27
	c2.2,11.9,24.9,103.7,21.6,118.9c-3.2,15.1-4.3,70.2-4.3,70.2l-441.9,4.3c0,0-3.2-145.9-5.4-162.1c-2.2-16.2-3.2-24.9-3.2-24.9
	s-41.1-9.7-42.1-14s-2.2-6.5,0-14c2.2-7.6,18.4-56.2,20.5-69.2c2.2-13,17.3-61.6,17.3-61.6S1178.5,333.8,1186,326.2z"/>
<path class="st1" d="M1530.1,237.4c5.4,10.4-2.7,45.6-0.5,56.4c2.2,10.8,14,42.1,14,42.1s0,0,0,7.6s2.2,38.9,5.4,61.6
	s-5.4,137.2-9.7,161c-4.3,23.8-11.9,87.5-3.2,118.9c8.6,31.3,28.1,50.8,35.7,61.6s15.1,43.2,15.1,43.2s-7.6-5.4-13-7.6
	c-5.4-2.2-13,2.2-31.3,4.3c-18.4,2.2-178.3,0-178.3,0s-1.1-21.6,2.2-38.9c3.2-17.3,5.4-47.5,5.4-47.5s-11.9-57.3-14-67
	c-2.2-9.7-9.7-99.4-9.7-99.4S1337.3,417,1333,393.2c-4.3-23.8-3.2-71.3,0-78.9s8.6-18.4,11.9-28.1c3.2-9.7,8.6-16.2,16.2-23.8
	c7.6-7.6,17.4-18.7,23.8-29.2c24.7-40.5,51.9-10.8,63.7-11.9C1448.6,221.4,1513.8,206.2,1530.1,237.4z"/>
<path class="st5" d="M1400.5,192.1c-0.5-1-5,44.7-7.9,56.5c-2.9,11.9-9.4,33.5-9.7,40.7c-0.4,7.2,41.6,27.9,44.3,30.4
	c2.7,2.5,10.3,13,13.3,20c3.1,7,6.3,7.6,8.1,10.4c1.8,2.9,4.1,9.2,4.1,12.4c0,3.2-0.9,10.1-0.9,10.1s7.4-17.6,8.8-20.9
	s1.1-13.3,1.1-13.3s3.4-11.6,10.6-16s12.8-5.6,18.4-6.3c5.6-0.7,17.3-8.8,23.2-18.3s12.6-27.6,12.6-44.8s3.9-63.5,3.9-63.5
	s-24.3,25.9-35.1,30.8C1484.6,225.2,1409.5,210.1,1400.5,192.1z"/>
<path class="st8" d="M1395.6,220.3c-5.4,9.7-12.5,16.4-13.8,23.3c-1.3,6.9-1.3,21,2.5,26.4c3.8,5.4,4.3,16.7,11.3,23.8
	c7,7,19.4,15.7,25.4,19.4c5.9,3.8,11.9,7.6,15.1,14.6c3.2,7,4.3,11.9,4.3,11.9s-7-14-15.7-19.4c-8.6-5.4-14.6-3.2-18.9,3.8
	c-4.3,7-9.2,18.4-16.2,24.9s-16.2,17.8-23.2,26.5c0,0-6.5-26.5-10.8-40.5c-4.3-14-4.9-28.1-6.5-41.6c-1.6-13.5,6.6-13.1,11.3-24.3
	c4.8-11.2,4.8-11.2,4.8-11.2s8.7-19.6,13.6-26.6C1383.7,224.1,1395.6,220.3,1395.6,220.3z"/>
<path class="st8" d="M1530.1,237.4c-4.3,12.6-3.2,23.4-9.2,35.3s-13,27.6-20,33.5c-7,5.9-8.6,8.1-14.6,9.2s-15.7,8.1-14,7
	s15.7-7,20.5-3.2c4.9,3.8,11.3,16.2,16.2,24.9c4.9,8.6,17.8,28.1,21.1,31.3s6.5,9.7,6.5,9.7s2.3-8.6,4.9-20c2.6-11.4-2.7-34,0-42.1
	C1544.2,314.9,1530.1,237.4,1530.1,237.4z"/>
<path class="st6" d="M1381,105.5c-0.2,12.8,7,60.5,9.2,71.9c2.2,11.3,7,27.8,12.2,34.6c5.1,6.8,33.2,28.4,35.4,30.5
	c2.2,2.2,26.2,7.8,26.2,7.8s32.4-12,36.7-15.4c4.3-3.4,30-28.9,33.5-33.8s8-19.4,8-19.4l4.9-23.5c0,0,6.2,5.1,11.1,0.8
	c4.9-4.3,11.6-19.7,11.6-19.7s1.4-17,3-20.3c1.6-3.2,5.4-25.4,4.6-28.1c-0.8-2.7-12.2-40.8-42.4-62.1
	C1504.8,7.5,1383.2-20.1,1381,105.5z"/>
<path class="st4" d="M1672.2,303c0,0-5.9,10.3-18.4,16.2c-12.4,5.9-30.3,5.9-33.5,5.9c-3.2,0-20.5-5.1-29.2-13.9
	c-8.6-8.8-22.7-34.2-22.7-32.6c0,1.6,1.6,16.7,1.1,21.6c-0.5,4.9,7.9,20,7.9,20s-16-16.7-18.2-22.4c-2.2-5.7-12-13.8-12-13.8
	s-2.2,25.4,0,38.4c2.2,13,12.5,41.6,12.5,41.6l-8.6-14c0,0-1.6,6.5-0.5,10.8c1.1,4.3,14,14.6,14,14.6l8.6,9.7l-13.5-9.7
	c0,0-10.5-8.1-12.4-13c-1.9-4.9-8.9-19.2-10.8-25.7c-1.9-6.5-4.3-33.5-2.2-42.4c2.2-8.9,3.5-35.9,3.5-35.9l20.8-60.5
	c0,0,21.6-85.6,21.3-91.8c-0.1-2.8-3.2-8.8-7-15.9l-0.3,0.5c0,0-5.4,13.5-9.2,20.5c-3.8,7-13,12.4-13,12.4V98.8V83.1
	c0,0-17.3-20.5-20.2-33.5c-1.7-7.6-8.6-23.1-13.5-34.4c-10.5-9.7-18.7-16.9-18.7-16.9c-7.3,14.3-13,24.9-22.1,30.3
	s-22.1-0.5-28.6,3.2c-6.5,3.8-24.9,18.9-24.9,18.9s-11.3,14.6-17.3,27s-16.2,39.4-16.2,39.4l-3.8,69.2c0,0-6.5,30.5-11.9,41.4
	c-5.4,11-24.9,52.6-37.8,63.4c-13,10.8-38.9,9.7-38.9,9.7l-9.7-5.4l-14.6,2.4c0,0,8.1-17.6,13-25.1c4.9-7.6,16.7-27.4,21.1-35.3
	c4.3-7.9,18.4-56.5,18.4-56.5l21.1-93.5c0,0,37.3-104.3,54.6-119.4s72.1-35.7,89-35.1c16.9,0.5,29.9,8.6,32,11.3
	c2.2,2.7,4.3,9.7,4.3,9.7s10.7,7,16.4,10.3c5.7,3.2,15.5,23.2,15.5,23.2s9.2,25.4,15.1,35.7c5.9,10.3,18.9,51.9,18.9,51.9l13.5,48.6
	h-7.6c0,0-1.1,11.3-1.6,33.5c-0.5,22.1-3.2,58.3-2.2,73.5c1.1,15.1,11.3,56.2,11.3,56.2s10.3,16.2,17.3,18.9
	c7,2.7,24.9,5.6,24.9,5.6L1672.2,303z"/>
<path class="st8" d="M1864,1109.6L1607.9,880l-135.8-135.1l-331.5-342.3c0,0-14.1,11.4-34.5,29.7s-20.4,36.5-20.4,36.5l346,353.8
	l194.5,172.9l130.7,115.6l61.6,48.6c0,0,17.3-7.6,25.9-18.4C1853.2,1130.6,1864,1109.6,1864,1109.6z"/>
<path class="st7" d="M1099.1,549.4c0,0,19.4,35.7,30.8,40.5c11.3,4.9,54.8,8.1,54.8,8.1h20.8c0,0,16.6,67.5,13.4,87.3
	c-3.2,19.8-17.7,22.9-22.6,34.2s-37.1,21.1-37.1,21.1l-60.1-47c0,0-12.1-6.5-13.4-37.3s15-38.9,15-60S1099.1,549.4,1099.1,549.4z"/>
<path class="st6" d="M1229.4,536.4l-27,27.3l-34.3,39.7c0,0-10.3,0.5-19.4,0c-9.2-0.5-42.7-29.2-42.7-29.2c-6.1-8.1-7.7-58-7.7-58
	l5.2-6.9l6.3-8.5l42.7-22.8l11.3-5.8l10.8,3.6l10.1-5l16.8-5.2l-0.3,12.4l-16.6,14.4l-25.2,33.1l46.8-30.3l12.6-2.2l3.2,14l-31,33.5
	l34.2-15.2L1229.4,536.4z"/>
</svg>
