<?xml version="1.0" encoding="utf-8"?>
<svg version="1.1" id="Lag_1" xmlns="http://www.w3.org/2000/svg" xmlns:xlink="http://www.w3.org/1999/xlink" x="0px" y="0px"
	 viewBox="0 0 4556 1380" style="enable-background:new 0 0 4556 1380; background-color: #7eb7ca" xml:space="preserve">
<style type="text/css">
	.st0{fill:#EFEEEE;}
	.st1{fill:#E698A2;}
	.st2{fill:#E9ACB4;}
	.st3{fill:#D62D28;}
	.st4{fill:#152030;}
	.st5{fill:#E78E44;}
	.st6{fill:#C48D6E;}
	.st7{fill:#D4A891;}
</style>
<g>
	<polygon class="st0" points="2357,1601.1 2419.7,1384 2450.2,1292.4 2479.2,1184.6 2527.4,1133.2 2681.8,1089.7 2768.6,1066.2 
		2830.8,1054.9 2874.8,1042.6 2896.2,1034.5 2900.5,999.7 2916,975 2927.8,956.3 3033.4,915 3177.1,903.2 3247.8,916.1 
		3291.8,939.1 3313.8,962.2 3326.1,999.2 3340,1030.8 3348.6,1052.2 3348.6,1065.1 3372.2,1079 3442.9,1105.3 3511.6,1140.7 
		3640.2,1185.7 3683.1,1212.5 3731.9,1246.8 3798.3,1288.6 3820.8,1337.9 3836.9,1430.1 3842.3,1554.5 3857.3,1771 	"/>
	<polygon class="st1" points="2915,848 2927.3,1074.2 2951.4,1111.7 2970.2,1134.2 2977.7,1159.4 2999.1,1196.4 3013.1,1219.5 
		3038.2,1239.3 3084.9,1220 3099.4,1209.8 3111.1,1191.1 3143.3,1151.9 3175.5,1125.1 3243.5,1070.4 3286.4,1027.6 3291.3,1006.1 
		3281.6,908.6 3287.5,855 3308.4,801.9 3326.1,689.9 	"/>
	<polygon class="st2" points="2917.6,435.3 2879.6,513 2872.6,537.6 2876.9,559.1 2872.6,588 2861.9,619.6 2852.2,675.4 2849,732.2 
		2853.3,779.9 2861.9,830.3 2878,869.4 2902.1,909.1 2925.7,946.6 2953.6,968.1 2999.1,978.2 3054.3,978.2 3113.8,955.2 
		3182.4,927.3 3232.3,903.2 3265.5,860.9 3287.5,807.8 3306.8,814.8 3330.9,805.6 3350.8,785.8 3371.1,757.4 3388.8,716.1 
		3395.2,689.9 3395.2,658.2 3382.4,640 3381.3,546.7 3228,427.2 	"/>
	<polygon class="st0" points="2883.9,471.7 2856,435.8 2856,395.6 2869.9,353.8 2880.1,304.5 2902.1,272.8 2927.8,260 2976.1,249.8 
		3026.5,231.6 3053.8,218.7 3112.2,216 3159.9,226.7 3213.5,248.7 3239.8,261.6 3303.6,280.9 3342.7,302.3 3362.5,323.8 
		3376.5,343.9 3397.9,363.4 3423.1,416.5 3436.5,457.2 3436.5,500.6 3418.8,545.7 3418.8,569.8 3405.4,599.3 3392.6,622.9 
		3317.5,517.3 3159.4,463.7 2957.8,461 	"/>
	<polygon class="st3" points="2863,477.6 2863,405.8 2868.9,390.8 2895.7,366.6 2961.1,335.6 3010.9,324.3 3057,320.5 3122.1,333.4 
		3189.4,354.3 3289.6,410.1 3349.7,451.9 3392.6,496.9 3404.4,539.8 3404.4,573.5 3398.5,627.2 3389.3,661.5 3362.5,622.9 
		3326.1,556.9 3267.1,486.7 3146.3,454 2951.4,448.1 	"/>
	<polygon class="st2" points="3307.3,678.1 3326.1,650.2 3373.3,622.9 3382.4,640 3395.2,658.2 3378.6,702.7 	"/>
	<polygon class="st4" points="2880.7,427.2 2851.7,448.1 2841,465.8 2841,483 2841,501.7 2849,511.9 2880.7,493.1 2929.4,478.7 
		3030.2,474.9 3133.7,488.9 3221.6,508.2 3277.3,511.9 3307.3,516.7 3326.1,538.2 3360.9,573 3371.7,545.1 3340,504.9 3304.7,477.1 
		3258.2,450.7 3217.3,435.8 3126.2,408.5 3014.1,394.5 2959.5,398.8 2905.8,415.4 	"/>
	<polygon class="st3" points="3086.9,258.4 3086.2,285 3073.7,302.9 3048.8,305.6 3029.3,293.1 3025.9,269.5 3036.8,248.3 
		3056.7,239.8 3073.9,244.9 	"/>
	<polygon class="st0" points="3047.4,266.7 3055.5,267.9 3054.6,256.5 3062,256.4 3060,267.8 3069.2,267.7 3068.3,275.2 
		3059.1,273.1 3059.9,291.7 3051.5,291.6 3054.6,273 3046.8,274.6 	"/>
	<polygon class="st5" points="2879.6,546.7 2896.7,536 2924.1,536 2961.1,543.5 2983.6,552.6 2980.4,536 2956.8,522.6 2931.6,513.5 
		2906.9,513.5 2888.2,519.4 2875.8,526.2 2872.6,537.6 2875.6,552.6 	"/>
	<polygon class="st5" points="3079,522.1 3063.4,538.2 3082.2,538.2 3097.7,548.9 3129.9,543.5 3172.3,552.6 3205.5,568.7 
		3223.2,573 3214.1,547.6 3173.3,530.7 3125.6,518.9 3098.8,513.5 	"/>
</g>
<g>
	<polygon class="st4" points="1135.1,464.6 1103.9,540.1 1073.5,618.9 1057.9,690.3 1064.5,771.6 1082.6,862.7 1082.6,905.4 
		1092.4,948.9 1057.9,1032.6 1047.3,1085.1 1030,1121.2 982.8,1215.6 1785.2,1100.8 1754.8,1063 1709.6,1011.2 1677.6,912.7 
		1654.7,845.4 1657.9,784.7 1666.1,687 1648.1,596.7 1623.5,536 1590.6,464.6 1542.2,392.4 	"/>
	<polygon class="st0" points="698.4,1665.4 724.7,1443.8 742.7,1340.4 810.1,1223.8 879.7,1179.7 992.3,1146.7 1057.9,1131.9 
		1118.7,1102.4 1158.1,1077.7 1417.4,1015.3 1555.3,1031.8 1644,1051.5 1741.7,1069.5 1778.6,1110.6 1834.4,1166.4 1918.1,1440.5 
		1952.6,1665.4 	"/>
	<polygon class="st1" points="1103.9,1063 1143.3,1123.7 1200.8,1186.9 1248.4,1214.8 1314.8,1242.7 1390.4,1255.8 1442.9,1255.8 
		1493.8,1224.7 1515.1,1181.2 1532.4,1127.8 1542.2,1077.7 1523.3,1006.3 1456.8,979.2 1469.2,933.3 1479,907 1513.5,778.1 
		1192.5,700.2 1158.9,828.2 1124.4,1031.8 	"/>
	<polygon class="st2" points="1129.3,487.6 1133.4,564.7 1133.4,632.9 1112.1,614 1094.9,618.9 1082.6,652.6 1089.1,690.3 
		1117,739.2 1140,769.9 1164.6,783.1 1175.3,815.9 1196.6,852.8 1254.1,914.4 1341.9,941.5 1417.4,941.5 1466.7,919.3 1506.1,894.7 
		1530.7,861.9 1550.4,813.4 1561.9,772.4 1561.9,743.7 1582.4,735.5 1599.7,708.4 1618.5,672.3 1627.6,642.7 1631.7,608.2 
		1608.7,576.2 1593.1,570.5 1577.5,499.9 1549.6,376.8 1337,376.8 	"/>
	<polygon class="st4" points="1193.4,436.7 1188.4,481 1157.2,524.5 1142.5,574.6 1142.5,618.1 1133.4,651.7 1119.5,636.1 
		1108.8,644.3 1089.9,651.7 1071.9,668.2 1082.6,614.8 1115.4,525.3 1117,491.7 	"/>
	<polygon class="st4" points="1515.9,408.8 1523.3,436.7 1552.1,472.8 1564.4,529.4 1564.4,565.6 1576.7,614.8 1588.2,594.3 
		1602.1,594.3 1602.1,584.4 1631.7,589.4 1603.8,525.3 1563.5,403 	"/>
	<polygon class="st4" points="1485.6,918.5 1473.3,958.7 1467.5,996.5 1480.6,1015.3 1515.9,1038.3 1542.2,1051.5 1573.8,1079.4 
		1626.7,1094.1 1654,1119.6 1699.8,1139.3 1745.8,1127.8 1809,1127 1772.8,1085.5 1656.3,998.9 	"/>
	<polygon class="st4" points="1148.2,796.2 1164.6,783.1 1181,852 1197.5,894.7 1193.4,953.8 1193.4,1003.9 1210.6,1028.9 
		1210.6,1051.5 1193.4,1097.4 1198.3,1131.1 1186.8,1160.6 1165.5,1194.3 1119.5,1255.8 1090.8,1265.7 1045.6,1261.6 1012.8,1280.1 
		974.2,1269 916.8,1274.7 875.7,1255.8 920,1255.8 907.7,1238.6 903.6,1207.4 910.2,1181.2 920.9,1176.2 933.2,1187.7 934.7,1163.6 
		948.8,1171.3 962.7,1143.4 982.8,1156.5 1002.1,1130.3 1025.1,1108.1 1043.2,1040.8 1057.9,1008 1062,962 1099,870.9 	"/>
	<polygon class="st4" points="1167.9,557.9 1190.9,536.5 1221.5,516.3 1248.9,516.3 1285.6,516.3 1316.2,527.8 1289.9,537.1 
		1257.7,537.1 1218.3,534.4 1201.8,542 1181,554.6 	"/>
	<polygon class="st4" points="1418.5,516.3 1410.3,529.4 1435,533.3 1460.7,524.8 1494.1,518.5 1518.7,514.1 1540,518.5 
		1511.6,501.5 1481.5,493.9 1464,500.4 1438.2,513.6 1423.5,511.4 	"/>
	<polygon class="st0" points="1093,445.2 1077.1,432.6 1077.1,392.4 1087.5,362 1093,307.8 1126.3,238.3 1164.6,214.2 1202.4,200.6 
		1242.1,194.5 1280.1,169.4 1326.6,158.4 1368.7,167.7 1430.6,183.1 1455.7,180.3 1505.5,182 1560.3,211.5 1582.7,251.5 
		1594.7,283.7 1599.7,315.5 1608.4,346.1 1616.6,374 1614.4,392.4 1597.5,407.4 1522,347.8 1316.2,347.8 1167.9,405.8 	"/>
	<polygon class="st3" points="1103.9,371.8 1087.5,436.7 1087.5,456.7 1095.7,481.8 1143.8,424.4 1327.7,361.4 1488,355.4 
		1560.8,371.3 1602.4,423.3 1611.7,403 1603.5,360.3 1573.8,316 1488.6,275.5 1402.7,267.9 1329.9,260.2 1242.1,283.7 1172.3,321.5 
		1120.9,359.8 	"/>
	<polygon class="st4" points="1108.3,565.6 1090.8,513.6 1087.5,473.1 1118.1,417.3 1195.3,376.8 1335.9,334.6 1450.8,324.8 
		1525.2,337.4 1569.6,350.5 1604.6,397.6 1611.7,455 1602.9,508.9 1532.4,430.9 1491.3,424.9 1385.4,426.9 1290.5,448.4 
		1200.2,475.8 1149.3,506.5 	"/>
	<polygon class="st3" points="1369,195.5 1372,222.8 1360.7,242.2 1333,247.3 1309.2,236.4 1301.8,212.7 1311.1,190 1332.2,179.4 
		1352.4,183 	"/>
	<polygon class="st0" points="1325.7,207.7 1334.9,208.2 1332.3,196.7 1340.6,195.8 1340,207.7 1350.4,206.7 1350.5,214.4 
		1339.8,213.1 1343.4,232.1 1334,232.8 1334.7,213.4 1326.2,215.8 	"/>
</g>
<g>
	<polygon class="st4" points="2254.1,722.7 1998.5,804 2080.9,1032.8 2474.7,1116.5 2540,858.6 	"/>
	<polygon class="st0" points="1515.3,1762.6 1528.7,1589 1539.4,1461 1569,1362.6 1621.8,1231.9 1678.2,1146.9 1743.5,1105.7 
		1789.1,1059.2 1832.1,1037.7 1983.3,997.5 2164.1,980.5 2310,955.4 2378,945.5 2480.9,951.8 2573.1,977.8 2679.6,1103.1 
		2740.5,1246.2 2772.7,1387.7 2859.5,1785.9 	"/>
	<polygon class="st6" points="1851.8,1039.5 1909.1,1061 1970.8,1102.2 2069.3,1162.1 2137.3,1184.5 2159.6,1184.5 2169.5,1206 
		2174,1231.9 2187.4,1270.4 2220.5,1311.6 2258.1,1361.7 2284.9,1402 2315.4,1428.8 2325.2,1453.9 2335.1,1492.4 2372.6,1503.1 
		2395.9,1510.3 2409.3,1498.6 2399.5,1436.9 2398.6,1365.7 2388.8,1270.4 2390.5,1198.8 2394.1,1138.9 2397.7,1119.2 2384.3,1104.8 
		2384.3,1093.2 2368.6,1073.5 2364.6,1039.5 2368.6,982.2 2393.2,908 2409.3,855.2 2077.3,722.7 	"/>
	<polygon class="st7" points="2146.2,346.8 2130.6,538.3 2118.5,684.2 2139.1,783.6 2166.8,839.9 2196.3,868.6 2234.8,903.5 
		2286.7,919.6 2328.8,915.1 2357.4,903.5 2427.2,852.5 2463.9,812.2 2489.9,761.2 2520.3,694.1 2543.6,618.9 2554.3,570.6 
		2558.8,523.1 2554.3,426.5 	"/>
	<polygon class="st4" points="2175.8,458.7 2218.7,446.2 2251.8,452.4 2290.3,463.2 2327,477.5 2332.4,499.9 2323.4,507 
		2300.2,490.9 2273.3,484.7 2239.3,471.2 2214.2,462.3 2175.8,469.4 	"/>
	<polygon class="st4" points="2414.7,498.1 2409.3,517.8 2443.3,522.2 2471.1,516.9 2507.8,514.2 2526.6,515.1 2540,522.2 
		2535.5,507 2515.8,490 2497,490 2468.4,496.3 2443.3,498.1 	"/>
	<polygon class="st4" points="2802.2,1498.6 2788.8,1380.5 2774.5,1307.1 2767.3,1223.9 2742.3,1133.5 2716.3,1056.5 2680.5,952.7 
		2668,846.2 2638.4,677.1 2622.3,587.6 2601.7,498.1 2590.1,433.6 2553.4,377.3 2223.2,310.1 2118.5,330.7 2059.4,385.3 
		2029.9,425.6 2002.1,483.8 1967.2,582.2 1944,708.4 1902.8,813.1 1864.3,912.4 1823.1,1005.5 1775.7,1052 1730.1,1078.9 
		1701.4,1116.5 1663.8,1142.4 1637.9,1180.9 1616.4,1217.6 1597.6,1291.7 1628,1246.2 1652.2,1203.3 1664.7,1177.3 1692.5,1151.4 
		1728.3,1123.6 1775.7,1095 1824,1063.7 1875.9,1061.9 1927.9,1037.7 1947.5,1063.7 1952.9,1130.8 1973.5,1163.9 1990.5,1256.1 
		2004.8,1330.4 1998.6,1394.8 2016.5,1467.3 2029.9,1559.5 2050.5,1666.9 2073.7,1700 2096.1,1713.4 2110.4,1697.3 2118.5,1726.8 
		2139.1,1755.5 2144.4,1708.9 2163.2,1736.7 2165.9,1691.9 2150.7,1641.8 2151.6,1608.7 2139.1,1557.7 2148.9,1531.7 2135.5,1473.6 
		2157.9,1496.8 2172.2,1559.5 2197.2,1629.3 2208,1690.1 2226.8,1723.3 2225.9,1747.4 2247.3,1718.8 2255.4,1677.6 2252.7,1606 
		2264.4,1647.2 2274.2,1705.4 2280.5,1667.8 2258.1,1577.4 2247.3,1534.4 2233,1471.8 2228.6,1407.3 2202.6,1327.7 2209.8,1288.3 
		2213.3,1261.5 2208,1212.2 2209.8,1158.5 2206.2,1095 2225,1109.3 2230.3,1166.6 2236.6,1230.1 2242.9,1283.8 2237.5,1325 
		2254.5,1288.3 2257.2,1227.5 2250.9,1160.3 2248.2,1108.4 2211.6,991.2 2193.7,950 2198.1,919.6 2171.3,860.5 2167,840.1 
		2166.8,839.9 2139.1,783.6 2118.5,684.2 2130.6,538.3 2146.2,346.8 2554.3,426.5 2558.8,523.1 2554.3,570.6 2543.6,618.9 
		2520.3,694.1 2489.9,761.2 2463.9,812.2 2427.2,852.5 2401.4,871.4 2395,919.6 2390.5,952.7 2390.5,1003.7 2400.4,1086.9 
		2421,1122.7 2452.3,1176.4 2472,1193.4 2492.6,1211.3 2502.4,1232.8 2517.6,1248 2526.6,1278.5 2527.5,1339.3 2508.7,1385.9 
		2497.9,1442.2 2514,1500.4 2521.2,1544.3 2539.1,1574.7 2545.4,1601.5 2552.5,1636.4 2558.8,1597.1 2544.5,1547 2543.6,1510.3 
		2523,1459.2 2529.3,1432.4 2534.6,1381.4 2570.4,1334.8 2582.1,1365.7 2591.9,1397.5 2590.1,1451.2 2573.1,1484.3 2564.2,1518.3 
		2564.2,1550.5 2569.5,1583.6 2574,1549.6 2592.8,1528.2 2596.4,1552.3 2607.1,1581.9 2613.4,1543.4 2628.6,1510.3 2636.7,1538 
		2653.7,1572.9 2682.3,1588.1 2697.5,1607.8 2724.4,1615.9 2748.5,1632 2725.3,1583.6 2739.6,1552.3 2726.1,1504.9 2710,1459.2 
		2734.2,1493.3 2755.7,1535.3 2747.6,1590.8 2768.2,1613.2 2792.4,1636.4 2786.1,1564.8 	"/>
	<polygon class="st4" points="2141.7,883.8 2150.7,763 2146.2,699.4 2150.7,651.1 2165.9,579.5 2171.3,522.2 2182.9,482.9 
		2199.9,414 2215.3,346.8 2118.5,330.7 2080.9,657.4 	"/>
	<polygon class="st0" points="2049.1,330.7 2038.4,300.7 2034.4,253.8 2049.1,220.6 2046,174.6 2071.9,135.2 2113.6,112.4 
		2182,98.5 2288.1,95.4 2422.3,93.1 2489.4,111.9 2572.2,140.5 2623.2,169.6 2638.4,193.8 2648.3,226.5 2639.8,248.4 2629.5,260.9 
		2636.7,279.3 2641.6,299 2635.8,327.1 2626.6,354.7 2385.6,265.8 2182,270.8 2067,310.1 	"/>
	<polygon class="st3" points="2044.6,397.8 2038.4,391.1 2041.5,315.5 2048.2,289.6 2094.3,259.6 2186.9,239.4 2329.5,235.4 
		2425.4,242.1 2492.1,257.8 2572.7,280.2 2612,302.5 2626.4,320.9 2629.5,336.5 2622.8,379 2620.5,394.6 2118.5,316.6 	"/>
	<polygon class="st4" points="2045.4,409.5 2070.4,375.5 2099.1,363.5 2124.1,363.5 2145.6,382.6 2188.6,401.7 2274.5,416 
		2389,431.6 2472.6,444.7 2532.2,459 2571.6,459 2590.7,453 2600.3,439.9 2613.4,443.5 2613.4,420.8 2620.5,394.6 2597.9,363.5 
		2529.9,333.7 2409.3,300.3 2291.2,289.6 2189.8,289.6 2131.3,294.3 2093.1,308.6 2072.8,319.4 2062.1,361.1 2045.4,374.3 
		2038.4,391.1 2040.6,414.4 	"/>
	<polygon class="st3" points="2390.2,130.3 2380.7,163.7 2390.2,190.5 2422.5,203 2453.5,194.7 2467.5,166.6 2461.2,136.2 
		2438,118.3 2412.9,118.3 	"/>
	<polygon class="st0" points="2439.8,155.1 2428.6,153.7 2434.2,139.9 2424.4,137 2422.5,151.9 2410.3,148.3 2408.4,158 
		2421.7,158.8 2413.2,181.7 2424.4,184.6 2427.7,160.3 2437.4,165.1 	"/>
</g>
</svg>
